<?xml version="1.0" standalone="no"?>
<!DOCTYPE svg PUBLIC "-//W3C//DTD SVG 20010904//EN"
 "http://www.w3.org/TR/2001/REC-SVG-20010904/DTD/svg10.dtd">
<svg version="1.0" xmlns="http://www.w3.org/2000/svg"
 width="567.000000pt" height="193.000000pt" viewBox="0 0 567.000000 193.000000"
 preserveAspectRatio="xMidYMid meet">

<g transform="translate(0.000000,193.000000) scale(0.100000,-0.100000)"
fill="#000000" stroke="none">
<path d="M1480 1311 c0 -5 5 -13 10 -16 6 -3 10 -2 10 4 0 5 -4 13 -10 16 -5
3 -10 2 -10 -4z"/>
<path d="M975 1300 c-3 -6 1 -7 9 -4 18 7 21 14 7 14 -6 0 -13 -4 -16 -10z"/>
<path d="M1942 1049 c-1 -195 1 -268 10 -277 9 -9 -6 -12 -71 -12 -63 0 -80 3
-75 13 5 8 2 8 -9 -2 -9 -7 -17 -15 -17 -17 0 -2 46 -4 102 -4 97 0 100 1 85
18 -14 16 -17 54 -20 283 l-2 264 -3 -266z"/>
<path d="M2061 1307 c2 -1 13 -9 23 -17 11 -8 17 -10 13 -3 -4 6 -1 14 5 16 7
3 0 6 -16 6 -16 1 -27 0 -25 -2z"/>
<path d="M2368 1292 c9 -10 19 -17 21 -16 6 5 -20 34 -30 34 -5 0 -1 -8 9 -18z"/>
<path d="M2529 1293 c-13 -17 -13 -17 6 -3 11 8 22 16 24 17 2 2 0 3 -6 3 -6
0 -17 -8 -24 -17z"/>
<path d="M2740 1306 c0 -2 7 -7 16 -10 8 -3 12 -2 9 4 -6 10 -25 14 -25 6z"/>
<path d="M3478 1303 c7 -3 16 -2 19 1 4 3 -2 6 -13 5 -11 0 -14 -3 -6 -6z"/>
<path d="M3673 1299 c9 -5 17 -18 18 -27 0 -11 2 -12 6 -4 6 15 -14 42 -31 42
-6 0 -3 -5 7 -11z"/>
<path d="M4820 1306 c0 -2 7 -7 16 -10 8 -3 12 -2 9 4 -6 10 -25 14 -25 6z"/>
<path d="M4938 1303 c7 -3 16 -2 19 1 4 3 -2 6 -13 5 -11 0 -14 -3 -6 -6z"/>
<path d="M810 1296 c0 -2 8 -10 18 -17 15 -13 16 -12 3 4 -13 16 -21 21 -21
13z"/>
<path d="M2834 1275 c-9 -14 -15 -27 -13 -30 3 -2 12 10 21 26 21 36 15 39 -8
4z"/>
<path d="M4445 1280 c10 -11 20 -20 23 -20 3 0 -3 9 -13 20 -10 11 -20 20 -23
20 -3 0 3 -9 13 -20z"/>
<path d="M3530 1286 c0 -2 8 -10 18 -17 15 -13 16 -12 3 4 -13 16 -21 21 -21
13z"/>
<path d="M4879 1273 c-13 -16 -12 -17 4 -4 9 7 17 15 17 17 0 8 -8 3 -21 -13z"/>
<path d="M1218 1240 c-6 -51 -3 -59 9 -33 5 10 7 32 3 48 -6 28 -7 27 -12 -15z"/>
<path d="M1814 1035 c0 -137 2 -195 3 -128 2 67 2 179 0 250 -1 70 -3 16 -3
-122z"/>
<path d="M3204 1040 c0 -129 2 -182 3 -117 2 64 2 170 0 235 -1 64 -3 11 -3
-118z"/>
<path d="M3822 1018 l-2 -258 -72 0 c-56 0 -69 3 -60 12 7 7 12 19 11 27 0 14
-1 14 -6 1 -3 -8 -12 -23 -21 -32 -14 -17 -10 -18 67 -18 57 0 83 4 86 13 3 7
4 125 2 262 l-2 250 -3 -257z"/>
<path d="M4294 1030 c0 -135 2 -190 3 -122 2 67 2 177 0 245 -1 67 -3 12 -3
-123z"/>
<path d="M2113 1175 c0 -44 2 -61 4 -37 2 23 2 59 0 80 -2 20 -4 1 -4 -43z"/>
<path d="M2514 1070 c0 -102 2 -143 3 -92 2 50 2 134 0 185 -1 50 -3 9 -3 -93z"/>
<path d="M2226 1227 c3 -10 9 -15 12 -12 3 3 0 11 -7 18 -10 9 -11 8 -5 -6z"/>
<path d="M4825 1229 c-11 -17 1 -21 15 -4 8 9 8 15 2 15 -6 0 -14 -5 -17 -11z"/>
<path d="M2812 1200 c0 -14 2 -19 5 -12 2 6 2 18 0 25 -3 6 -5 1 -5 -13z"/>
<path d="M3581 1184 c0 -11 3 -14 6 -6 3 7 2 16 -1 19 -3 4 -6 -2 -5 -13z"/>
<path d="M1421 1154 c0 -11 3 -14 6 -6 3 7 2 16 -1 19 -3 4 -6 -2 -5 -13z"/>
<path d="M2204 1098 l-19 -23 23 19 c21 18 27 26 19 26 -2 0 -12 -10 -23 -22z"/>
<path d="M3486 1062 l-19 -27 24 22 c12 12 21 24 18 27 -2 2 -13 -8 -23 -22z"/>
<path d="M2160 1070 c-9 -6 -10 -10 -3 -10 6 0 15 5 18 10 8 12 4 12 -15 0z"/>
<path d="M2070 1050 c0 -5 5 -10 11 -10 5 0 7 5 4 10 -3 6 -8 10 -11 10 -2 0
-4 -4 -4 -10z"/>
<path d="M3440 1030 c8 -5 20 -10 25 -10 6 0 3 5 -5 10 -8 5 -19 10 -25 10 -5
0 -3 -5 5 -10z"/>
<path d="M2065 1020 c3 -5 12 -7 20 -3 21 7 19 13 -6 13 -11 0 -18 -4 -14 -10z"/>
<path d="M2392 955 c0 -16 2 -22 5 -12 2 9 2 23 0 30 -3 6 -5 -1 -5 -18z"/>
<path d="M2102 905 c0 -16 2 -22 5 -12 2 9 2 23 0 30 -3 6 -5 -1 -5 -18z"/>
<path d="M1101 904 c0 -11 3 -14 6 -6 3 7 2 16 -1 19 -3 4 -6 -2 -5 -13z"/>
<path d="M2221 904 c0 -11 3 -14 6 -6 3 7 2 16 -1 19 -3 4 -6 -2 -5 -13z"/>
<path d="M4071 890 c-2 -8 -2 -41 -1 -74 l2 -59 -51 5 c-29 3 -54 1 -57 -3 -3
-5 20 -9 51 -9 65 0 67 3 62 91 -2 35 -5 57 -6 49z"/>
<path d="M1295 843 c-10 -23 -6 -54 8 -72 10 -12 4 -13 -41 -9 -29 3 -55 1
-58 -3 -3 -5 25 -9 62 -9 66 0 67 0 49 20 -13 14 -16 29 -12 55 6 38 3 45 -8
18z"/>
<path d="M2231 844 c0 -11 3 -14 6 -6 3 7 2 16 -1 19 -3 4 -6 -2 -5 -13z"/>
<path d="M4485 818 c-22 -24 -28 -33 -14 -20 14 12 28 20 31 17 2 -3 10 6 16
20 6 14 10 25 9 25 -2 0 -21 -19 -42 -42z"/>
<path d="M2521 842 c-1 -14 27 -72 35 -72 2 0 -2 12 -9 28 -8 15 -17 34 -20
42 -4 10 -6 11 -6 2z"/>
<path d="M2291 821 c-8 -15 -8 -22 1 -27 7 -4 10 -4 6 1 -4 4 -3 14 4 22 6 7
8 16 5 19 -3 3 -10 -3 -16 -15z"/>
<path d="M2450 816 c26 -29 78 -61 87 -53 2 3 -5 8 -17 12 -12 4 -38 21 -58
38 -35 29 -35 30 -12 3z"/>
<path d="M4161 806 c0 -11 -8 -28 -18 -38 -15 -17 -12 -18 80 -18 90 0 115 8
85 26 -7 4 -8 3 -4 -4 5 -9 -15 -12 -75 -12 -70 0 -80 2 -69 15 6 8 10 22 7
32 -4 16 -5 16 -6 -1z"/>
<path d="M1254 788 l-19 -23 23 19 c21 18 27 26 19 26 -2 0 -12 -10 -23 -22z"/>
<path d="M4915 790 c10 -11 20 -20 23 -20 3 0 -3 9 -13 20 -10 11 -20 20 -23
20 -3 0 3 -9 13 -20z"/>
<path d="M1705 780 c17 -19 16 -19 -76 -23 l-94 -3 104 -2 104 -2 -23 25 c-28
29 -41 34 -15 5z"/>
<path d="M4494 781 c5 -23 3 -23 -45 -19 -27 3 -52 1 -55 -3 -3 -5 25 -9 62
-9 52 0 64 3 57 13 -6 6 -13 19 -17 27 -3 8 -4 4 -2 -9z"/>
<path d="M3183 775 c-7 -8 -13 -17 -13 -20 0 -3 46 -5 102 -5 56 0 98 3 95 6
-4 4 -45 6 -92 5 -73 -2 -84 0 -79 13 7 20 3 20 -13 1z"/>
<path d="M2260 765 c-14 -8 -20 -14 -14 -15 5 0 19 7 30 15 24 18 16 19 -16 0z"/>
<path d="M2565 760 c-3 -5 1 -10 10 -10 9 0 13 5 10 10 -3 6 -8 10 -10 10 -2
0 -7 -4 -10 -10z"/>
<path d="M4760 758 c0 -5 48 -8 107 -8 58 0 104 3 101 6 -9 8 -208 10 -208 2z"/>
</g>
</svg>
